# xmcd
#
# Track frame offsets:
#	183
#	12528
#	26125
#	40215
#	50495
#	63560
#	75805
#	85360
#	98185
#	110933
#	124333
#	137365
#	149505
#	162545
#	175158
#	187813
#	202485
#	216595
#	227143
#	240753
#
# Disc length: 3351 seconds
#
# Revision: 0
# Processed by: cddbd v1.5.2PL0 Copyright (c) Steve Scherf et al.
# Submitted via: VUPlayer 2.49
#
DISCID=260d1514
DTITLE=Dean Martin - A Portrait of...
DYEAR=1990
DGENRE=Oldies
TTITLE0=Return To Me
TTITLE1=Volare
TTITLE2=That's Amore
TTITLE3=Memories Are Made of This
TTITLE4=Angel Baby
TTITLE5=Young and Foolish
TTITLE6=Watching the World Go By
TTITLE7=Once in A While
TTITLE8=Nevertheless
TTITLE9=Lullaby
TTITLE10=Wrap Your Troubles in Dreams
TTITLE11=Rain
TTITLE12=June in January
TTITLE13=Hit the Road To Dreamland
TTITLE14=Sway
TTITLE15=Goodnight Sweetheart
TTITLE16=Canadian Sunset
TTITLE17=Basin Street Blues
TTITLE18=Promise Her Anything
TTITLE19=Baby it's Cold Outside
EXTD=
EXTT0=
EXTT1=
EXTT2=
EXTT3=
EXTT4=
EXTT5=
EXTT6=
EXTT7=
EXTT8=
EXTT9=
EXTT10=
EXTT11=
EXTT12=
EXTT13=
EXTT14=
EXTT15=
EXTT16=
EXTT17=
EXTT18=
EXTT19=
PLAYORDER=
